<?xml version="1.0" encoding="utf-8"?>
<!-- Generator: Adobe Illustrator 24.2.3, SVG Export Plug-In . SVG Version: 6.00 Build 0)  -->
<svg version="1.1" id="artwork" xmlns="http://www.w3.org/2000/svg" xmlns:xlink="http://www.w3.org/1999/xlink" x="0px" y="0px"
	 viewBox="0 0 155 60" style="enable-background:new 0 0 155 60;" xml:space="preserve">
<style type="text/css">
	.st0{fill:#FFFFFF;fill-opacity:0;}
</style>
<rect class="st0" width="155" height="60"/>
<path d="M137.32,18.44c0-0.31,0-0.61,0-0.92c-0.01-0.67-0.07-1.34-0.19-2c-0.11-0.66-0.32-1.3-0.62-1.9c-0.62-1.2-1.6-2.18-2.8-2.8
	c-0.6-0.3-1.24-0.51-1.91-0.63c-0.66-0.11-1.33-0.17-2-0.18c-0.3,0-0.62-0.01-0.92-0.01c-0.36,0-0.72,0-1.08,0v0H27.2
	c-0.37,0-0.73,0-1.09,0c-0.31,0-0.61,0.01-0.92,0.01c-0.67,0.01-1.34,0.07-2,0.18c-0.66,0.11-1.3,0.32-1.9,0.63
	c-0.6,0.31-1.14,0.7-1.62,1.18c-0.48,0.47-0.88,1.02-1.18,1.62c-0.3,0.6-0.51,1.24-0.62,1.9c-0.11,0.66-0.17,1.33-0.18,2
	c-0.01,0.31-0.01,0.61-0.02,0.92v23.11c0,0.31,0.01,0.61,0.02,0.92c0.01,0.67,0.07,1.34,0.18,2c0.11,0.66,0.32,1.31,0.62,1.9
	c0.3,0.6,0.7,1.14,1.18,1.61c0.47,0.48,1.02,0.88,1.62,1.18c0.6,0.3,1.24,0.52,1.9,0.63c0.66,0.11,1.33,0.17,2,0.18
	C25.5,49.99,25.8,50,26.11,50c0.37,0,0.73,0,1.09,0h100.6c0.36,0,0.72,0,1.08,0c0.3,0,0.62,0,0.92-0.01c0.67-0.01,1.34-0.07,2-0.18
	c0.66-0.11,1.31-0.33,1.91-0.63c0.6-0.3,1.14-0.7,1.62-1.18c0.48-0.47,0.87-1.02,1.18-1.61c0.3-0.6,0.51-1.24,0.62-1.9
	c0.11-0.66,0.17-1.33,0.19-2c0-0.31,0-0.61,0-0.92c0.01-0.36,0.01-0.72,0.01-1.09V19.54C137.33,19.17,137.33,18.81,137.32,18.44z
	 M136.46,40.46c0,0.36,0,0.72-0.01,1.08c0,0.33,0,0.62,0,0.93c-0.01,0.62-0.07,1.24-0.17,1.85c-0.09,0.58-0.28,1.14-0.54,1.67
	c-0.26,0.51-0.61,0.98-1.02,1.39c-0.41,0.41-0.88,0.76-1.4,1.02c-0.53,0.27-1.09,0.45-1.67,0.55c-0.62,0.1-1.24,0.16-1.87,0.16
	c-0.29,0.01-0.6,0.01-0.9,0.01l-1.08,0l-101.69,0c-0.3,0-0.6,0-0.9-0.01c-0.63-0.01-1.25-0.06-1.87-0.16
	c-0.58-0.1-1.13-0.28-1.66-0.55c-0.52-0.26-0.99-0.6-1.4-1.02c-0.41-0.41-0.76-0.88-1.02-1.4c-0.26-0.52-0.45-1.08-0.54-1.66
	c-0.1-0.62-0.16-1.25-0.17-1.88c-0.01-0.21-0.01-0.91-0.01-0.91v-23.1c0,0,0.01-0.69,0.01-0.89c0.01-0.63,0.06-1.25,0.17-1.87
	c0.1-0.58,0.28-1.14,0.54-1.66c0.26-0.52,0.6-0.99,1.02-1.4c0.41-0.41,0.88-0.76,1.4-1.02c0.52-0.26,1.08-0.45,1.65-0.54
	c0.62-0.1,1.25-0.16,1.88-0.16l0.9-0.01h102.77l0.91,0.01c0.62,0.01,1.24,0.06,1.86,0.16c0.58,0.1,1.14,0.28,1.67,0.55
	c1.04,0.53,1.88,1.38,2.41,2.42c0.26,0.52,0.44,1.08,0.54,1.65c0.1,0.62,0.16,1.25,0.17,1.89c0,0.28,0,0.59,0,0.89
	c0.01,0.38,0.01,0.73,0.01,1.09V40.46z"/>
<g id="_Group_2">
	<g id="_Group_3">
		<path id="_Path_" d="M42.66,29.89c0.02-1.76,0.95-3.39,2.45-4.32c-0.95-1.36-2.49-2.19-4.15-2.24c-1.75-0.18-3.44,1.04-4.33,1.04
			c-0.91,0-2.28-1.03-3.75-1c-1.94,0.06-3.71,1.14-4.65,2.84c-2.01,3.48-0.51,8.6,1.42,11.41c0.96,1.38,2.09,2.92,3.56,2.86
			c1.44-0.06,1.98-0.92,3.72-0.92c1.72,0,2.23,0.92,3.73,0.89c1.55-0.03,2.52-1.38,3.45-2.78c0.69-0.98,1.23-2.07,1.58-3.22
			C43.86,33.69,42.67,31.89,42.66,29.89z"/>
		<path id="_Path_2" d="M39.82,21.48c0.84-1.01,1.26-2.32,1.16-3.63c-1.29,0.14-2.48,0.75-3.34,1.73c-0.84,0.96-1.27,2.22-1.19,3.5
			C37.76,23.08,39.01,22.5,39.82,21.48z"/>
	</g>
</g>
<g>
	<path d="M59.97,37.14h-4.73L54.1,40.5h-2l4.48-12.42h2.08l4.48,12.42h-2.04L59.97,37.14z M55.73,35.59h3.75l-1.85-5.45h-0.05
		L55.73,35.59z"/>
	<path d="M72.83,35.97c0,2.81-1.51,4.62-3.78,4.62c-1.17,0.06-2.28-0.55-2.85-1.58h-0.04v4.48H64.3V31.44h1.8v1.51h0.03
		c0.59-1.02,1.7-1.64,2.88-1.6C71.31,31.35,72.83,33.16,72.83,35.97z M70.92,35.97c0-1.83-0.95-3.04-2.39-3.04
		c-1.42,0-2.38,1.23-2.38,3.04c0,1.82,0.96,3.05,2.38,3.05C69.97,39.02,70.92,37.82,70.92,35.97L70.92,35.97z"/>
	<path d="M82.79,35.97c0,2.81-1.51,4.62-3.78,4.62c-1.17,0.06-2.28-0.55-2.85-1.58h-0.04v4.48h-1.86V31.44h1.8v1.51h0.03
		c0.59-1.02,1.7-1.64,2.88-1.6C81.28,31.35,82.79,33.16,82.79,35.97z M80.88,35.97c0-1.83-0.95-3.04-2.39-3.04
		c-1.42,0-2.38,1.23-2.38,3.04c0,1.82,0.96,3.05,2.38,3.05C79.93,39.02,80.88,37.82,80.88,35.97z"/>
	<path d="M89.38,37.04c0.14,1.23,1.33,2.04,2.97,2.04c1.57,0,2.69-0.81,2.69-1.92c0-0.96-0.68-1.54-2.29-1.94l-1.61-0.39
		c-2.28-0.55-3.34-1.62-3.34-3.35c0-2.14,1.87-3.61,4.52-3.61c2.62,0,4.42,1.47,4.48,3.61h-1.88c-0.11-1.24-1.14-1.99-2.63-1.99
		s-2.52,0.76-2.52,1.86c0,0.88,0.65,1.39,2.25,1.79l1.37,0.34c2.55,0.6,3.61,1.63,3.61,3.44c0,2.32-1.85,3.78-4.79,3.78
		c-2.75,0-4.61-1.42-4.73-3.67L89.38,37.04z"/>
	<path d="M101.01,29.3v2.14h1.72v1.47h-1.72v4.99c0,0.78,0.34,1.14,1.1,1.14c0.2,0,0.41-0.02,0.61-0.04v1.46
		c-0.34,0.06-0.69,0.09-1.03,0.09c-1.83,0-2.55-0.69-2.55-2.44v-5.19h-1.32v-1.47h1.32V29.3H101.01z"/>
	<path d="M103.73,35.97c0-2.85,1.68-4.64,4.29-4.64c2.62,0,4.29,1.79,4.29,4.64c0,2.86-1.66,4.64-4.29,4.64
		C105.39,40.61,103.73,38.83,103.73,35.97z M110.43,35.97c0-1.95-0.9-3.11-2.4-3.11s-2.4,1.16-2.4,3.11c0,1.96,0.9,3.11,2.4,3.11
		S110.43,37.93,110.43,35.97L110.43,35.97z"/>
	<path d="M113.85,31.44h1.77v1.54h0.04c0.25-0.99,1.16-1.67,2.18-1.64c0.21,0,0.43,0.02,0.64,0.07v1.74
		c-0.27-0.08-0.55-0.12-0.83-0.11c-1.03-0.04-1.91,0.76-1.95,1.8c0,0.1,0,0.19,0.01,0.29v5.37h-1.86L113.85,31.44z"/>
	<path d="M127.05,37.84c-0.25,1.64-1.85,2.77-3.9,2.77c-2.63,0-4.27-1.76-4.27-4.6c0-2.84,1.64-4.68,4.19-4.68
		c2.5,0,4.08,1.72,4.08,4.47v0.64h-6.39v0.11c-0.11,1.3,0.84,2.44,2.14,2.56c0.1,0.01,0.2,0.01,0.29,0.01
		c0.9,0.08,1.75-0.43,2.09-1.27L127.05,37.84z M120.77,35.13h4.53c0.07-1.2-0.85-2.23-2.05-2.29c-0.06,0-0.11,0-0.17,0
		c-1.27-0.01-2.3,1.01-2.31,2.28C120.77,35.12,120.77,35.13,120.77,35.13z"/>
</g>
<path d="M55.49,18.73c1.45-0.1,2.72,0.99,2.82,2.44c0.01,0.17,0.01,0.35-0.01,0.52c0,1.91-1.03,3-2.81,3h-2.16v-5.97H55.49z
	 M54.27,23.85h1.12c1.03,0.06,1.92-0.73,1.98-1.76c0.01-0.13,0-0.26-0.02-0.39c0.14-1.03-0.58-1.98-1.61-2.12
	c-0.12-0.02-0.24-0.02-0.36-0.01h-1.12V23.85z"/>
<path d="M59.35,22.44c-0.11-1.17,0.75-2.21,1.92-2.33c1.17-0.11,2.21,0.75,2.33,1.92c0.01,0.14,0.01,0.27,0,0.41
	c0.11,1.17-0.74,2.22-1.92,2.33c-1.17,0.11-2.22-0.74-2.33-1.92C59.34,22.72,59.34,22.58,59.35,22.44z M62.68,22.44
	c0-0.98-0.44-1.55-1.21-1.55c-0.77,0-1.21,0.57-1.21,1.55c0,0.98,0.43,1.55,1.21,1.55C62.24,23.99,62.68,23.42,62.68,22.44
	L62.68,22.44z"/>
<path d="M69.24,24.7h-0.92l-0.93-3.32h-0.07l-0.93,3.32h-0.91l-1.24-4.5h0.9l0.81,3.44h0.07l0.93-3.44h0.85l0.93,3.44h0.07l0.8-3.44
	h0.89L69.24,24.7z"/>
<path d="M71.52,20.19h0.86v0.72h0.07c0.23-0.53,0.77-0.85,1.34-0.8c0.81-0.06,1.51,0.54,1.57,1.35c0.01,0.11,0,0.22-0.01,0.32v2.91
	h-0.89v-2.69c0-0.72-0.31-1.08-0.97-1.08c-0.57-0.03-1.05,0.41-1.08,0.98c0,0.05,0,0.11,0,0.16v2.63h-0.89L71.52,20.19z"/>
<path d="M76.76,18.44h0.89v6.26h-0.89V18.44z"/>
<path d="M78.89,22.44c-0.11-1.17,0.75-2.21,1.92-2.33c1.17-0.11,2.21,0.75,2.33,1.92c0.01,0.14,0.01,0.27,0,0.41
	c0.11,1.17-0.74,2.22-1.92,2.33c-1.17,0.11-2.22-0.74-2.33-1.92C78.87,22.72,78.87,22.58,78.89,22.44z M82.22,22.44
	c0-0.98-0.44-1.55-1.21-1.55c-0.77,0-1.21,0.57-1.21,1.55c0,0.98,0.43,1.55,1.21,1.55C81.78,23.99,82.22,23.42,82.22,22.44z"/>
<path d="M84.07,23.42c0-0.81,0.6-1.28,1.67-1.34l1.22-0.07v-0.39c0-0.48-0.31-0.74-0.92-0.74c-0.5,0-0.84,0.18-0.94,0.5h-0.86
	c0.09-0.77,0.82-1.27,1.84-1.27c1.13,0,1.77,0.56,1.77,1.51v3.08h-0.86v-0.63h-0.07c-0.29,0.46-0.81,0.73-1.35,0.71
	c-0.75,0.08-1.42-0.47-1.49-1.21C84.07,23.51,84.07,23.47,84.07,23.42z M86.96,23.04v-0.38l-1.1,0.07c-0.62,0.04-0.9,0.25-0.9,0.65
	c0,0.41,0.35,0.64,0.83,0.64c0.58,0.06,1.1-0.37,1.16-0.95C86.96,23.06,86.96,23.05,86.96,23.04z"/>
<path d="M89.02,22.44c0-1.42,0.73-2.32,1.87-2.32c0.57-0.03,1.11,0.28,1.38,0.79h0.07v-2.47h0.89v6.26h-0.85v-0.71H92.3
	c-0.29,0.5-0.83,0.81-1.41,0.79C89.74,24.77,89.02,23.87,89.02,22.44z M89.93,22.44c0,0.96,0.45,1.53,1.2,1.53
	c0.75,0,1.21-0.58,1.21-1.53c0-0.94-0.47-1.53-1.21-1.53C90.39,20.92,89.93,21.5,89.93,22.44L89.93,22.44z"/>
<path d="M96.9,22.44c-0.11-1.17,0.75-2.21,1.92-2.33c1.17-0.11,2.21,0.75,2.33,1.92c0.01,0.14,0.01,0.27,0,0.41
	c0.11,1.17-0.74,2.22-1.92,2.33c-1.17,0.11-2.22-0.74-2.33-1.92C96.88,22.72,96.88,22.58,96.9,22.44z M100.23,22.44
	c0-0.98-0.44-1.55-1.21-1.55c-0.77,0-1.21,0.57-1.21,1.55c0,0.98,0.43,1.55,1.21,1.55C99.79,23.99,100.23,23.42,100.23,22.44z"/>
<path d="M102.34,20.19h0.86v0.72h0.07c0.23-0.53,0.77-0.85,1.34-0.8c0.81-0.06,1.51,0.54,1.57,1.35c0.01,0.11,0,0.22-0.01,0.32v2.91
	h-0.89v-2.69c0-0.72-0.31-1.08-0.97-1.08c-0.57-0.03-1.05,0.41-1.08,0.98c0,0.05,0,0.11,0,0.16v2.63h-0.89V20.19z"/>
<path d="M111.18,19.07v1.14h0.98v0.75h-0.98v2.32c0,0.47,0.19,0.68,0.64,0.68c0.11,0,0.23-0.01,0.34-0.02v0.74
	c-0.16,0.03-0.32,0.04-0.48,0.05c-0.99,0-1.38-0.35-1.38-1.22v-2.54h-0.71v-0.75h0.71v-1.14H111.18z"/>
<path d="M113.37,18.44h0.88v2.48h0.07c0.24-0.53,0.79-0.85,1.37-0.81c0.82-0.04,1.52,0.58,1.56,1.4c0.01,0.09,0,0.19-0.01,0.28v2.91
	h-0.89v-2.69c0-0.72-0.33-1.08-0.96-1.08c-0.58-0.05-1.09,0.38-1.13,0.96c0,0.06,0,0.12,0,0.18v2.63h-0.89L113.37,18.44z"/>
<path d="M122.43,23.48c-0.25,0.85-1.07,1.4-1.95,1.3c-1.13,0.03-2.07-0.86-2.1-1.99c0-0.11,0-0.22,0.02-0.33
	c-0.15-1.14,0.65-2.18,1.78-2.33c0.1-0.01,0.2-0.02,0.29-0.02c1.25,0,2.01,0.86,2.01,2.27v0.31h-3.18v0.05
	c-0.06,0.66,0.43,1.23,1.09,1.29c0.04,0,0.08,0,0.11,0c0.43,0.05,0.86-0.16,1.07-0.55L122.43,23.48z M119.3,22.03h2.27
	c0.04-0.6-0.4-1.12-1-1.16c-0.04,0-0.07,0-0.11,0c-0.64-0.01-1.16,0.5-1.17,1.14C119.3,22.01,119.3,22.02,119.3,22.03L119.3,22.03z"
	/>
</svg>
