<?xml version="1.0" encoding="utf-8"?>
<!-- Generator: Adobe Illustrator 25.4.1, SVG Export Plug-In . SVG Version: 6.00 Build 0)  -->
<svg version="1.1" id="Livello_1" xmlns="http://www.w3.org/2000/svg" xmlns:xlink="http://www.w3.org/1999/xlink" x="0px" y="0px"
	 viewBox="0 0 163 48" style="enable-background:new 0 0 163 48;" xml:space="preserve">
<style type="text/css">
	.st0{fill-rule:evenodd;clip-rule:evenodd;fill:#FFFFFF;}
	.st1{fill-rule:evenodd;clip-rule:evenodd;}
	.st2{fill-rule:evenodd;clip-rule:evenodd;fill:url(#SVGID_1_);}
	.st3{fill-rule:evenodd;clip-rule:evenodd;fill:url(#SVGID_00000041289658965005575530000003379153023084679852_);}
	.st4{fill-rule:evenodd;clip-rule:evenodd;fill:url(#SVGID_00000071525160292197757900000004667086530105835680_);}
	.st5{fill-rule:evenodd;clip-rule:evenodd;fill:url(#SVGID_00000038396239752159878280000000759288955369881734_);}
	.st6{opacity:0.2;fill-rule:evenodd;clip-rule:evenodd;enable-background:new    ;}
	.st7{opacity:0.12;fill-rule:evenodd;clip-rule:evenodd;enable-background:new    ;}
	.st8{opacity:0.25;fill-rule:evenodd;clip-rule:evenodd;fill:#FFFFFF;enable-background:new    ;}
</style>
<path class="st0" d="M157,48H6c-3.3,0-6-2.7-6-6V6c0-3.3,2.7-6,6-6H157c3.3,0,6,2.7,6,6v36C163,45.3,160.3,48,157,48z"/>
<path class="st1" d="M157,1c2.8,0,5.1,2.3,5.1,5v36c0,2.8-2.3,5-5.1,5H6C3.2,47,1,44.8,1,42V6C1,3.2,3.2,1,6,1C6,1,157,1,157,1z
	 M157,0H6C2.7,0,0,2.7,0,6v36c0,3.3,2.7,6,6,6H157c3.3,0,6-2.7,6-6V6C163,2.7,160.3,0,157,0z"/>
<path d="M85.9,15.9c-1.1,0-2-0.4-2.7-1.1C82.4,14,82,13,82,12c0-1.1,0.4-2,1.1-2.8c0.7-0.7,1.6-1.1,2.7-1.1c1.1,0,2,0.4,2.7,1.1
	c0.7,0.8,1.1,1.7,1.1,2.8c0,1.1-0.4,2-1.1,2.8C87.9,15.5,87,15.9,85.9,15.9z M53.5,15.9c-1.1,0-2-0.4-2.7-1.1
	C50,14,49.6,13.1,49.6,12s0.4-2,1.1-2.8c0.7-0.7,1.7-1.1,2.7-1.1c0.5,0,1,0.1,1.5,0.3c0.5,0.2,0.9,0.5,1.2,0.8l0.1,0.1l-0.8,0.8
	l-0.1-0.1c-0.5-0.5-1.1-0.8-1.9-0.8c-0.7,0-1.4,0.3-1.9,0.8c-0.5,0.5-0.8,1.2-0.8,2c0,0.8,0.3,1.5,0.8,2c0.5,0.5,1.2,0.8,1.9,0.8
	c0.8,0,1.4-0.3,1.9-0.8c0.3-0.3,0.5-0.7,0.6-1.2h-2.6v-1.1h3.7l0,0.1c0,0.2,0.1,0.4,0.1,0.6c0,1-0.3,1.9-0.9,2.5
	C55.5,15.5,54.6,15.9,53.5,15.9z M96.5,15.7h-1.1l-3.5-5.6l0,1v4.6h-1.1V8.3h1.3l0,0.1l3.3,5.3l0-1V8.3h1.2L96.5,15.7L96.5,15.7z
	 M77.2,15.7h-1.2V9.4h-2V8.3h5.2v1.1h-2L77.2,15.7L77.2,15.7z M73.1,15.7h-1.2V8.3h1.2V15.7z M66.6,15.7h-1.2V9.4h-2V8.3h5.2v1.1h-2
	V15.7z M62.7,15.7h-4.4V8.3h4.4v1.1h-3.3v2h3v1.1h-3v2h3.3V15.7z M84,14c0.5,0.5,1.1,0.8,1.9,0.8c0.8,0,1.4-0.3,1.9-0.8
	c0.5-0.5,0.8-1.2,0.8-2s-0.3-1.5-0.8-2c-0.5-0.5-1.2-0.8-1.9-0.8c-0.8,0-1.4,0.3-1.9,0.8c-0.5,0.5-0.8,1.2-0.8,2S83.5,13.5,84,14
	L84,14z"/>
<path class="st1" d="M81.9,26.1c-2.8,0-5.1,2.1-5.1,5.1c0,2.9,2.3,5.1,5.1,5.1c2.8,0,5.1-2.2,5.1-5.1C87.1,28.3,84.8,26.1,81.9,26.1
	z M81.9,34.3c-1.6,0-2.9-1.3-2.9-3.1c0-1.8,1.3-3.1,2.9-3.1c1.6,0,2.9,1.3,2.9,3.1C84.8,33,83.5,34.3,81.9,34.3z M70.7,26.1
	c-2.8,0-5.1,2.1-5.1,5.1c0,2.9,2.3,5.1,5.1,5.1c2.8,0,5.1-2.2,5.1-5.1C75.9,28.3,73.6,26.1,70.7,26.1z M70.7,34.3
	c-1.6,0-2.9-1.3-2.9-3.1c0-1.8,1.3-3.1,2.9-3.1c1.6,0,2.9,1.3,2.9,3.1C73.6,33,72.3,34.3,70.7,34.3z M57.4,27.7v2.2h5.2
	c-0.2,1.2-0.6,2.1-1.2,2.7c-0.8,0.8-1.9,1.6-4,1.6c-3.2,0-5.7-2.6-5.7-5.8s2.5-5.8,5.7-5.8c1.7,0,3,0.7,3.9,1.5l1.5-1.5
	c-1.3-1.2-3-2.2-5.4-2.2c-4.4,0-8.1,3.6-8.1,7.9c0,4.4,3.7,7.9,8.1,7.9c2.4,0,4.1-0.8,5.5-2.2c1.4-1.4,1.9-3.4,1.9-5.1
	c0-0.5,0-1-0.1-1.3L57.4,27.7C57.4,27.6,57.4,27.7,57.4,27.7z M111.9,29.3c-0.4-1.1-1.7-3.3-4.4-3.3c-2.6,0-4.8,2.1-4.8,5.1
	c0,2.9,2.2,5.1,5.1,5.1c2.3,0,3.7-1.4,4.3-2.3l-1.7-1.2c-0.6,0.9-1.4,1.4-2.5,1.4c-1.1,0-2-0.5-2.5-1.5l6.8-2.8
	C112.1,29.9,111.9,29.3,111.9,29.3z M104.9,31.1c-0.1-2,1.5-3,2.7-3c0.9,0,1.6,0.4,1.9,1.1L104.9,31.1z M99.4,36h2.2V21h-2.2V36z
	 M95.7,27.2L95.7,27.2c-0.6-0.6-1.6-1.1-2.8-1.1c-2.6,0-4.9,2.2-4.9,5.1c0,2.9,2.3,5.1,4.9,5.1c1.2,0,2.2-0.5,2.7-1.2h0.1v0.7
	c0,1.9-1,3-2.7,3c-1.4,0-2.2-1-2.6-1.8l-2,0.8c0.6,1.3,2.1,3,4.5,3c2.6,0,4.9-1.5,4.9-5.3v-9.2h-2.1L95.7,27.2
	C95.7,27.2,95.7,27.2,95.7,27.2z M93.1,34.3c-1.6,0-2.8-1.3-2.8-3.1c0-1.8,1.3-3.1,2.8-3.1c1.5,0,2.7,1.3,2.7,3.1
	C95.8,33,94.6,34.3,93.1,34.3z M122.4,21H117v15h2.2v-5.7h3.1c2.5,0,4.9-1.8,4.9-4.7S124.9,21,122.4,21z M122.5,28.2h-3.2v-5.1h3.2
	c1.7,0,2.6,1.4,2.6,2.6C125.1,26.8,124.1,28.2,122.5,28.2z M136.3,26.1c-1.6,0-3.3,0.7-4,2.3l2,0.8c0.4-0.8,1.2-1.1,2-1.1
	c1.2,0,2.3,0.7,2.4,1.9v0.2c-0.4-0.2-1.3-0.6-2.3-0.6c-2.2,0-4.3,1.2-4.3,3.4c0,2,1.8,3.3,3.7,3.3c1.5,0,2.3-0.7,2.9-1.5h0.1V36h2.2
	v-5.7C140.9,27.6,138.9,26.1,136.3,26.1z M136.1,34.3c-0.7,0-1.8-0.4-1.8-1.3c0-1.2,1.3-1.6,2.4-1.6c1,0,1.5,0.2,2,0.5
	C138.6,33.3,137.4,34.3,136.1,34.3z M148.8,26.4l-2.6,6.5h-0.1l-2.7-6.5H141l4,9.1l-2.3,5.1h2.3l6.2-14.1H148.8z M128.6,36h2.2V21
	h-2.2V36z"/>
<linearGradient id="SVGID_1_" gradientUnits="userSpaceOnUse" x1="7695.8184" y1="575.1982" x2="7694.0854" y2="574.3037" gradientTransform="matrix(11.64 0 0 -22.55 -89553.1094 12981.1543)">
	<stop  offset="0" style="stop-color:#00A0FF"/>
	<stop  offset="6.569999e-03" style="stop-color:#00A1FF"/>
	<stop  offset="0.2601" style="stop-color:#00BEFF"/>
	<stop  offset="0.5122" style="stop-color:#00D2FF"/>
	<stop  offset="0.7604" style="stop-color:#00DFFF"/>
	<stop  offset="1" style="stop-color:#00E3FF"/>
</linearGradient>
<path class="st2" d="M12.5,9C12.2,9.4,12,10,12,10.7v26.5c0,0.7,0.2,1.3,0.6,1.7l0.1,0.1l14.9-14.9v-0.3L12.5,9L12.5,9z"/>
<linearGradient id="SVGID_00000160175650995542191230000012858078742864974233_" gradientUnits="userSpaceOnUse" x1="7499.2368" y1="663.2856" x2="7496.0552" y2="663.2856" gradientTransform="matrix(9.145 0 0 -7.7 -68539.8359 5131.2993)">
	<stop  offset="0" style="stop-color:#FFE000"/>
	<stop  offset="0.4087" style="stop-color:#FFBD00"/>
	<stop  offset="0.7754" style="stop-color:#FFA500"/>
	<stop  offset="1" style="stop-color:#FF9C00"/>
</linearGradient>
<path style="fill-rule:evenodd;clip-rule:evenodd;fill:url(#SVGID_00000160175650995542191230000012858078742864974233_);" d="
	M32.5,29.1l-5-5v-0.3l5-5l0.1,0.1l5.9,3.3c1.7,0.9,1.7,2.5,0,3.5l-5.9,3.3C32.6,29.1,32.5,29.1,32.5,29.1z"/>
<linearGradient id="SVGID_00000054263891451540963360000009645373117061643152_" gradientUnits="userSpaceOnUse" x1="7858.4312" y1="618.4483" x2="7856.6118" y2="616.0877" gradientTransform="matrix(15.02 0 0 -11.5775 -118003.8047 7186.8389)">
	<stop  offset="0" style="stop-color:#FF3A44"/>
	<stop  offset="1" style="stop-color:#C31162"/>
</linearGradient>
<path style="fill-rule:evenodd;clip-rule:evenodd;fill:url(#SVGID_00000054263891451540963360000009645373117061643152_);" d="
	M32.6,29.1L27.5,24l-15,15c0.5,0.6,1.5,0.7,2.5,0.1L32.6,29.1"/>
<linearGradient id="SVGID_00000059302585222855320050000001322285172933391276_" gradientUnits="userSpaceOnUse" x1="7857.0298" y1="619.7869" x2="7857.8423" y2="618.7322" gradientTransform="matrix(15.02 0 0 -11.5715 -118003.8047 7172.0664)">
	<stop  offset="0" style="stop-color:#32A071"/>
	<stop  offset="6.850000e-02" style="stop-color:#2DA771"/>
	<stop  offset="0.4762" style="stop-color:#15CF74"/>
	<stop  offset="0.8009" style="stop-color:#06E775"/>
	<stop  offset="1" style="stop-color:#00F076"/>
</linearGradient>
<path style="fill-rule:evenodd;clip-rule:evenodd;fill:url(#SVGID_00000059302585222855320050000001322285172933391276_);" d="
	M32.6,18.9L15,9c-1-0.6-2-0.5-2.5,0.1l15,14.9L32.6,18.9z"/>
<path class="st6" d="M32.5,29l-17.4,9.9c-1,0.6-1.8,0.5-2.4,0L12.6,39l0.1,0.1c0.6,0.5,1.4,0.5,2.4,0l17.6-10L32.5,29z"/>
<path class="st7" d="M38.5,25.6l-6,3.4l0.1,0.1l5.9-3.3c0.8-0.5,1.3-1.1,1.3-1.7C39.7,24.6,39.3,25.1,38.5,25.6z"/>
<path class="st8" d="M15,9.1l23.4,13.3c0.8,0.4,1.2,1,1.3,1.6c0-0.6-0.4-1.3-1.3-1.7L15,9c-1.7-1-3-0.2-3,1.8v0.2
	C12,9,13.4,8.2,15,9.1z"/>
</svg>
