<svg version="1.1" id="artwork" xmlns="http://www.w3.org/2000/svg" x="0" y="0" viewBox="0 0 135 40" style="enable-background:new 0 0 135 40" xml:space="preserve"><style>.st0{fill:#fff}.st6{opacity:.12;enable-background:new}</style><path class="st0" d="M130 40H5c-2.8 0-5-2.2-5-5V5c0-2.8 2.2-5 5-5h125c2.8 0 5 2.2 5 5v30c0 2.7-2.2 5-5 5z"/><path class="st0" d="M130 .8c2.3 0 4.2 1.9 4.2 4.2v30c0 2.3-1.9 4.2-4.2 4.2H5C2.7 39.2.8 37.3.8 35V5C.8 2.7 2.7.8 5 .8h125m0-.8H5C2.2 0 0 2.2 0 5v30c0 2.8 2.2 5 5 5h125c2.8 0 5-2.2 5-5V5c0-2.7-2.2-5-5-5z"/><path d="M47.4 10.2c0 .8-.2 1.5-.7 2-.6.6-1.3.9-2.2.9s-1.6-.3-2.2-.9c-.6-.6-.9-1.3-.9-2.2 0-.9.3-1.6.9-2.2.6-.6 1.3-.9 2.2-.9.4 0 .8.1 1.2.3.4.2.7.4.9.7l-.5.5c-.4-.5-.9-.7-1.6-.7-.6 0-1.2.2-1.6.7-.5.4-.7 1-.7 1.7s.2 1.3.7 1.7c.5.4 1 .7 1.6.7.7 0 1.2-.2 1.7-.7.3-.3.5-.7.5-1.2h-2.2v-.7h2.9v.3zM52 7.7h-2.7v1.9h2.5v.7h-2.5v1.9H52v.8h-3.5V7H52v.7zM55.3 13h-.8V7.7h-1.7V7H57v.7h-1.7V13zM59.9 13V7h.8v6h-.8zM64.1 13h-.8V7.7h-1.7V7h4.1v.7H64l.1 5.3zM73.6 12.2c-.6.6-1.3.9-2.2.9-.9 0-1.6-.3-2.2-.9s-.9-1.3-.9-2.2.3-1.6.9-2.2 1.3-.9 2.2-.9c.9 0 1.6.3 2.2.9s.9 1.3.9 2.2c0 .9-.3 1.6-.9 2.2zm-3.8-.5c.4.4 1 .7 1.6.7s1.2-.2 1.6-.7c.4-.4.7-1 .7-1.7s-.2-1.3-.7-1.7c-.4-.4-1-.7-1.6-.7s-1.2.2-1.6.7c-.4.4-.7 1-.7 1.7s.2 1.3.7 1.7zM75.6 13V7h.9l2.9 4.7V7h.8v6h-.8l-3.1-4.9V13h-.7zM68.1 21.8c-2.4 0-4.3 1.8-4.3 4.3 0 2.4 1.9 4.3 4.3 4.3s4.3-1.8 4.3-4.3c0-2.6-1.9-4.3-4.3-4.3zm0 6.8c-1.3 0-2.4-1.1-2.4-2.6s1.1-2.6 2.4-2.6 2.4 1 2.4 2.6c0 1.5-1.1 2.6-2.4 2.6zm-9.3-6.8c-2.4 0-4.3 1.8-4.3 4.3 0 2.4 1.9 4.3 4.3 4.3s4.3-1.8 4.3-4.3c0-2.6-1.9-4.3-4.3-4.3zm0 6.8c-1.3 0-2.4-1.1-2.4-2.6s1.1-2.6 2.4-2.6 2.4 1 2.4 2.6c0 1.5-1.1 2.6-2.4 2.6zm-11.1-5.5v1.8H52c-.1 1-.5 1.8-1 2.3-.6.6-1.6 1.3-3.3 1.3-2.7 0-4.7-2.1-4.7-4.8s2.1-4.8 4.7-4.8c1.4 0 2.5.6 3.3 1.3l1.3-1.3c-1.1-1-2.5-1.8-4.5-1.8-3.6 0-6.7 3-6.7 6.6s3.1 6.6 6.7 6.6c2 0 3.4-.6 4.6-1.9 1.2-1.2 1.6-2.9 1.6-4.2 0-.4 0-.8-.1-1.1h-6.2zm45.4 1.4c-.4-1-1.4-2.7-3.6-2.7s-4 1.7-4 4.3c0 2.4 1.8 4.3 4.2 4.3 1.9 0 3.1-1.2 3.5-1.9l-1.4-1c-.5.7-1.1 1.2-2.1 1.2s-1.6-.4-2.1-1.3l5.7-2.4-.2-.5zm-5.8 1.4c0-1.6 1.3-2.5 2.2-2.5.7 0 1.4.4 1.6.9l-3.8 1.6zM82.6 30h1.9V17.5h-1.9V30zm-3-7.3c-.5-.5-1.3-1-2.3-1-2.1 0-4.1 1.9-4.1 4.3s1.9 4.2 4.1 4.2c1 0 1.8-.5 2.2-1h.1v.6c0 1.6-.9 2.5-2.3 2.5-1.1 0-1.9-.8-2.1-1.5l-1.6.7c.5 1.1 1.7 2.5 3.8 2.5 2.2 0 4-1.3 4-4.4V22h-1.8v.7zm-2.2 5.9c-1.3 0-2.4-1.1-2.4-2.6s1.1-2.6 2.4-2.6 2.3 1.1 2.3 2.6-1 2.6-2.3 2.6zm24.4-11.1h-4.5V30h1.9v-4.7h2.6c2.1 0 4.1-1.5 4.1-3.9s-2-3.9-4.1-3.9zm.1 6h-2.7v-4.3h2.7c1.4 0 2.2 1.2 2.2 2.1-.1 1.1-.9 2.2-2.2 2.2zm11.5-1.8c-1.4 0-2.8.6-3.3 1.9l1.7.7c.4-.7 1-.9 1.7-.9 1 0 1.9.6 2 1.6v.1c-.3-.2-1.1-.5-1.9-.5-1.8 0-3.6 1-3.6 2.8 0 1.7 1.5 2.8 3.1 2.8 1.3 0 1.9-.6 2.4-1.2h.1v1h1.8v-4.8c-.2-2.2-1.9-3.5-4-3.5zm-.2 6.9c-.6 0-1.5-.3-1.5-1.1 0-1 1.1-1.3 2-1.3.8 0 1.2.2 1.7.4-.2 1.2-1.2 2-2.2 2zm10.5-6.6-2.1 5.4h-.1l-2.2-5.4h-2l3.3 7.6-1.9 4.2h1.9l5.1-11.8h-2zm-16.8 8h1.9V17.5h-1.9V30z"/><linearGradient id="SVGID_1_" gradientUnits="userSpaceOnUse" x1="21.77" y1="-844.68" x2="4.988" y2="-861.462" gradientTransform="matrix(1 0 0 -1 0 -836)"><stop offset="0" style="stop-color:#00a0ff"/><stop offset=".007" style="stop-color:#00a1ff"/><stop offset=".26" style="stop-color:#00beff"/><stop offset=".512" style="stop-color:#00d2ff"/><stop offset=".76" style="stop-color:#00dfff"/><stop offset="1" style="stop-color:#00e3ff"/></linearGradient><path d="M10.4 7.5c-.3.3-.5.8-.5 1.4V31c0 .6.2 1.1.5 1.4l.1.1 12.4-12.4v-.2L10.4 7.5z" style="fill:url(#SVGID_1_)"/><linearGradient id="SVGID_2_" gradientUnits="userSpaceOnUse" x1="33.834" y1="-856.05" x2="9.637" y2="-856.05" gradientTransform="matrix(1 0 0 -1 0 -836)"><stop offset="0" style="stop-color:#ffe000"/><stop offset=".409" style="stop-color:#ffbd00"/><stop offset=".775" style="stop-color:orange"/><stop offset="1" style="stop-color:#ff9c00"/></linearGradient><path d="m27 24.3-4.1-4.1V19.9l4.1-4.1.1.1 4.9 2.8c1.4.8 1.4 2.1 0 2.9l-5 2.7z" style="fill:url(#SVGID_2_)"/><linearGradient id="SVGID_3_" gradientUnits="userSpaceOnUse" x1="24.816" y1="-858.284" x2="2.057" y2="-881.043" gradientTransform="matrix(1 0 0 -1 0 -836)"><stop offset="0" style="stop-color:#ff3a44"/><stop offset="1" style="stop-color:#c31162"/></linearGradient><path d="M27.1 24.2 22.9 20 10.4 32.5c.5.5 1.2.5 2.1.1l14.6-8.4" style="fill:url(#SVGID_3_)"/><linearGradient id="SVGID_4_" gradientUnits="userSpaceOnUse" x1="7.262" y1="-836.212" x2="17.424" y2="-846.374" gradientTransform="matrix(1 0 0 -1 0 -836)"><stop offset="0" style="stop-color:#32a071"/><stop offset=".069" style="stop-color:#2da771"/><stop offset=".476" style="stop-color:#15cf74"/><stop offset=".801" style="stop-color:#06e775"/><stop offset="1" style="stop-color:#00f076"/></linearGradient><path d="M27.1 15.8 12.5 7.5c-.9-.5-1.6-.4-2.1.1L22.9 20l4.2-4.2z" style="fill:url(#SVGID_4_)"/><path d="m27 24.1-14.5 8.2c-.8.5-1.5.4-2 0l-.1.1.1.1c.5.4 1.2.5 2 0L27 24.1z" style="opacity:.2;enable-background:new"/><path class="st6" d="M10.4 32.3c-.3-.3-.4-.8-.4-1.4v.1c0 .6.2 1.1.5 1.4v-.1h-.1zM32 21.3l-5 2.8.1.1 4.9-2.9c.7-.3 1-.8 1-1.3 0 .5-.4.9-1 1.3z"/><path d="M12.5 7.6 32 18.7c.6.4 1 .8 1 1.3 0-.5-.3-1-1-1.4L12.5 7.5C11.1 6.7 10 7.4 10 9v.1c0-1.6 1.1-2.3 2.5-1.5z" style="opacity:.25;fill:#fff;enable-background:new"/></svg>